# 3ds Max Wavefront OBJ Exporter v0.97b - (c)2007 guruware
# File Created: 24.11.2015 17:48:34

mtllib StarModel.mtl

#
# object Sphere001
#

v  -0.9507 5.0000 0.7798
v  -0.9507 4.0451 -2.1591
v  -2.6782 4.0451 -1.5978
v  -3.7458 4.0451 -0.1284
v  -3.7458 4.0451 1.6880
v  -2.6782 4.0451 3.1575
v  -0.9507 4.0451 3.7187
v  0.7767 4.0451 3.1575
v  1.8443 4.0451 1.6880
v  1.8443 4.0451 -0.1284
v  0.7767 4.0451 -1.5978
v  -0.9507 1.5451 -3.9755
v  -3.7458 1.5451 -3.0673
v  -5.4733 1.5451 -0.6896
v  -5.4733 1.5451 2.2493
v  -3.7458 1.5451 4.6269
v  -0.9507 1.5451 5.5351
v  1.8443 1.5451 4.6269
v  3.5718 1.5451 2.2493
v  3.5718 1.5451 -0.6897
v  1.8443 1.5451 -3.0673
v  -0.9507 -1.5451 -3.9755
v  -3.7458 -1.5451 -3.0673
v  -5.4733 -1.5451 -0.6896
v  -5.4733 -1.5451 2.2493
v  -3.7458 -1.5451 4.6269
v  -0.9507 -1.5451 5.5351
v  1.8443 -1.5451 4.6269
v  3.5718 -1.5451 2.2493
v  3.5718 -1.5451 -0.6897
v  1.8443 -1.5451 -3.0673
v  -0.9507 -4.0451 -2.1591
v  -2.6782 -4.0451 -1.5978
v  -3.7458 -4.0451 -0.1284
v  -3.7458 -4.0451 1.6880
v  -2.6782 -4.0451 3.1575
v  -0.9507 -4.0451 3.7187
v  0.7767 -4.0451 3.1575
v  1.8443 -4.0451 1.6880
v  1.8443 -4.0451 -0.1284
v  0.7767 -4.0451 -1.5978
v  -0.9507 -5.0000 0.7798
# 42 vertices

vn -0.0999 0.9463 -0.3075
vn -0.2616 0.9463 -0.1900
vn -0.3233 0.9463 -0.0000
vn -0.2616 0.9463 0.1900
vn -0.0999 0.9463 0.3075
vn 0.0999 0.9463 0.3075
vn 0.2616 0.9463 0.1900
vn 0.3233 0.9463 -0.0000
vn 0.2616 0.9463 -0.1900
vn 0.0999 0.9463 -0.3075
vn -0.2542 0.5685 -0.7824
vn -0.6656 0.5685 -0.4836
vn -0.8227 0.5685 -0.0000
vn -0.6656 0.5685 0.4836
vn -0.2542 0.5685 0.7824
vn 0.2542 0.5685 0.7824
vn 0.6656 0.5685 0.4836
vn 0.8227 0.5685 -0.0000
vn 0.6656 0.5685 -0.4836
vn 0.2542 0.5685 -0.7824
vn -0.3090 -0.0000 -0.9511
vn -0.8090 -0.0000 -0.5878
vn -1.0000 -0.0000 -0.0000
vn -0.8090 -0.0000 0.5878
vn -0.3090 -0.0000 0.9511
vn 0.3090 -0.0000 0.9511
vn 0.8090 -0.0000 0.5878
vn 1.0000 -0.0000 -0.0000
vn 0.8090 -0.0000 -0.5878
vn 0.3090 -0.0000 -0.9511
vn -0.2542 -0.5685 -0.7824
vn -0.6656 -0.5685 -0.4836
vn -0.8227 -0.5685 -0.0000
vn -0.6656 -0.5685 0.4836
vn -0.2542 -0.5685 0.7824
vn 0.2542 -0.5685 0.7824
vn 0.6656 -0.5685 0.4836
vn 0.8227 -0.5685 -0.0000
vn 0.6656 -0.5685 -0.4836
vn 0.2542 -0.5685 -0.7824
vn -0.0999 -0.9463 -0.3075
vn -0.2616 -0.9463 -0.1900
vn -0.3233 -0.9463 -0.0000
vn -0.2616 -0.9463 0.1900
vn -0.0999 -0.9463 0.3075
vn 0.0999 -0.9463 0.3075
vn 0.2616 -0.9463 0.1900
vn 0.3233 -0.9463 -0.0000
vn 0.2616 -0.9463 -0.1900
vn 0.0999 -0.9463 -0.3075
# 50 vertex normals

vt 0.0000 1.0000 0.0000
vt 0.0000 0.8000 0.0000
vt 0.1000 0.8000 0.0000
vt 0.1000 1.0000 0.0000
vt 0.2000 0.8000 0.0000
vt 0.2000 1.0000 0.0000
vt 0.3000 0.8000 0.0000
vt 0.3000 1.0000 0.0000
vt 0.4000 0.8000 0.0000
vt 0.4000 1.0000 0.0000
vt 0.5000 0.8000 0.0000
vt 0.5000 1.0000 0.0000
vt 0.6000 0.8000 0.0000
vt 0.6000 1.0000 0.0000
vt 0.7000 0.8000 0.0000
vt 0.7000 1.0000 0.0000
vt 0.8000 0.8000 0.0000
vt 0.8000 1.0000 0.0000
vt 0.9000 0.8000 0.0000
vt 0.9000 1.0000 0.0000
vt 1.0000 0.8000 0.0000
vt 0.0000 0.6000 0.0000
vt 0.1000 0.6000 0.0000
vt 0.2000 0.6000 0.0000
vt 0.3000 0.6000 0.0000
vt 0.4000 0.6000 0.0000
vt 0.5000 0.6000 0.0000
vt 0.6000 0.6000 0.0000
vt 0.7000 0.6000 0.0000
vt 0.8000 0.6000 0.0000
vt 0.9000 0.6000 0.0000
vt 1.0000 0.6000 0.0000
vt 0.0000 0.4000 0.0000
vt 0.1000 0.4000 0.0000
vt 0.2000 0.4000 0.0000
vt 0.3000 0.4000 0.0000
vt 0.4000 0.4000 0.0000
vt 0.5000 0.4000 0.0000
vt 0.6000 0.4000 0.0000
vt 0.7000 0.4000 0.0000
vt 0.8000 0.4000 0.0000
vt 0.9000 0.4000 0.0000
vt 1.0000 0.4000 0.0000
vt 0.0000 0.2000 0.0000
vt 0.1000 0.2000 0.0000
vt 0.2000 0.2000 0.0000
vt 0.3000 0.2000 0.0000
vt 0.4000 0.2000 0.0000
vt 0.5000 0.2000 0.0000
vt 0.6000 0.2000 0.0000
vt 0.7000 0.2000 0.0000
vt 0.8000 0.2000 0.0000
vt 0.9000 0.2000 0.0000
vt 1.0000 0.2000 0.0000
vt 0.0000 0.0000 0.0000
vt 0.1000 0.0000 0.0000
vt 0.2000 0.0000 0.0000
vt 0.3000 0.0000 0.0000
vt 0.4000 0.0000 0.0000
vt 0.5000 0.0000 0.0000
vt 0.6000 0.0000 0.0000
vt 0.7000 0.0000 0.0000
vt 0.8000 0.0000 0.0000
vt 0.9000 0.0000 0.0000
# 64 texture coords

g Sphere001
usemtl wire_088088225
s off
f 1/1/1 2/2/1 3/3/1 
f 1/4/2 3/3/2 4/5/2 
f 1/6/3 4/5/3 5/7/3 
f 1/8/4 5/7/4 6/9/4 
f 1/10/5 6/9/5 7/11/5 
f 1/12/6 7/11/6 8/13/6 
f 1/14/7 8/13/7 9/15/7 
f 1/16/8 9/15/8 10/17/8 
f 1/18/9 10/17/9 11/19/9 
f 1/20/10 11/19/10 2/21/10 
f 2/2/11 12/22/11 13/23/11 3/3/11 
f 3/3/12 13/23/12 14/24/12 4/5/12 
f 4/5/13 14/24/13 15/25/13 5/7/13 
f 5/7/14 15/25/14 16/26/14 6/9/14 
f 6/9/15 16/26/15 17/27/15 7/11/15 
f 7/11/16 17/27/16 18/28/16 8/13/16 
f 8/13/17 18/28/17 19/29/17 9/15/17 
f 9/15/18 19/29/18 20/30/18 10/17/18 
f 10/17/19 20/30/19 21/31/19 11/19/19 
f 11/19/20 21/31/20 12/32/20 2/21/20 
f 12/22/21 22/33/21 23/34/21 13/23/21 
f 13/23/22 23/34/22 24/35/22 14/24/22 
f 14/24/23 24/35/23 25/36/23 15/25/23 
f 15/25/24 25/36/24 26/37/24 16/26/24 
f 16/26/25 26/37/25 27/38/25 17/27/25 
f 17/27/26 27/38/26 28/39/26 18/28/26 
f 18/28/27 28/39/27 29/40/27 19/29/27 
f 19/29/28 29/40/28 30/41/28 20/30/28 
f 20/30/29 30/41/29 31/42/29 21/31/29 
f 21/31/30 31/42/30 22/43/30 12/32/30 
f 22/33/31 32/44/31 33/45/31 23/34/31 
f 23/34/32 33/45/32 34/46/32 24/35/32 
f 24/35/33 34/46/33 35/47/33 25/36/33 
f 25/36/34 35/47/34 36/48/34 26/37/34 
f 26/37/35 36/48/35 37/49/35 27/38/35 
f 27/38/36 37/49/36 38/50/36 28/39/36 
f 28/39/37 38/50/37 39/51/37 29/40/37 
f 29/40/38 39/51/38 40/52/38 30/41/38 
f 30/41/39 40/52/39 41/53/39 31/42/39 
f 31/42/40 41/53/40 32/54/40 22/43/40 
f 42/55/41 33/45/41 32/44/41 
f 42/56/42 34/46/42 33/45/42 
f 42/57/43 35/47/43 34/46/43 
f 42/58/44 36/48/44 35/47/44 
f 42/59/45 37/49/45 36/48/45 
f 42/60/46 38/50/46 37/49/46 
f 42/61/47 39/51/47 38/50/47 
f 42/62/48 40/52/48 39/51/48 
f 42/63/49 41/53/49 40/52/49 
f 42/64/50 32/54/50 41/53/50 
# 30 polygons - 20 triangles

